<svg xmlns="http://www.w3.org/2000/svg" viewBox="0 0 2175.57 585" width="2175.57" height="585"><g transform="translate(0 0) scale(0.8803611738148984)"><path fill="#ffffff" fill-rule="evenodd" d="M322 102 L358.5 102.5 L381.5 106.5 L408.5 114.5 L425.5 121.5 L450.5 134.5 L484.5 159.5 L505 180 L514 191 L535 223 L545 244 L552 264 L557 282 L560 303 L562.5 306.5 L584.5 306.5 L585.5 307.5 L693.5 306.5 L696 303 L696 300 L706 272 L712 260 L724 242 L745.5 219.5 L773.5 200.5 L788.5 193.5 L803.5 188.5 L807.5 188.5 L815.5 185.5 L832.5 183.5 L853.5 183.5 L869.5 185.5 L888.5 190.5 L904.5 196.5 L925.5 208.5 L949 228 L967 250 L981 277 L986 292 L991 318 L991 348 L986 373 L980 390 L971 408 L955 430 L939.5 445.5 L917.5 461.5 L897.5 471.5 L874.5 478.5 L854.5 481.5 L831.5 481.5 L811.5 478.5 L788.5 471.5 L769.5 462.5 L743.5 444.5 L730 431 L712 406 L703 387 L697 369 L696 362 L693.5 357.5 L563.5 357.5 L561 362 L560 373 L555 393 L546 420 L537 439 L523 462 L502 488 L490.5 499.5 L468.5 517.5 L445.5 532.5 L428.5 541.5 L405.5 550.5 L379.5 557.5 L348.5 562.5 L318.5 562.5 L301.5 560.5 L272.5 554.5 L246.5 545.5 L237.5 540.5 L234 537 L233 527 L236 521 L246.5 511.5 L257.5 505.5 L268.5 501.5 L277.5 499.5 L295.5 499.5 L342.5 509.5 L361.5 510.5 L386.5 504.5 L403.5 494.5 L413 483 L417 473 L417 463 L414 458 L408.5 453.5 L402.5 452.5 L394.5 454.5 L383 465 L371.5 478.5 L358.5 486.5 L342.5 490.5 L332.5 490.5 L320.5 488.5 L308.5 484.5 L299 477 L297 473 L297 462 L301 453 L309.5 443.5 L327.5 434.5 L345.5 432.5 L378.5 431.5 L400.5 425.5 L421.5 413.5 L435 400 L442 390 L459 353 L472.5 339.5 L491.5 327.5 L501 317 L503 310 L503 301 L499 291 L494.5 286.5 L487.5 282.5 L466.5 281.5 L453.5 286.5 L447.5 290.5 L434 305 L425 327 L422 342 L414 368 L405 384 L394.5 394.5 L381.5 403.5 L370.5 408.5 L354.5 413.5 L326.5 419.5 L305.5 428.5 L292 442 L278 468 L267.5 479.5 L259.5 482.5 L250.5 481.5 L246.5 479.5 L241 474 L238 465 L238 456 L241 445 L246 436 L265.5 417.5 L274.5 411.5 L295.5 402.5 L332.5 394.5 L347.5 389.5 L359.5 383.5 L365.5 379.5 L377 368 L383 358 L388 340 L388 320 L386 310 L380.5 295.5 L379 298 L380 307 L378 316 L374.5 318.5 L369 309 L369 297 L371 293 L374.5 291.5 L378.5 293.5 L380 291 L375 270 L375 249 L377 242 L383 233 L396.5 219.5 L404.5 213.5 L416 200 L423 185 L423 173 L418 163 L411.5 156.5 L404.5 152.5 L386.5 151.5 L376.5 154.5 L362.5 163.5 L353 173 L339 193 L332 209 L329 219 L326 238 L326 259 L328 271 L328 299 L326 310 L319 326 L311 337 L301.5 345.5 L282.5 356.5 L244.5 373.5 L233.5 381.5 L226 389 L219 401 L216 413 L216 431 L219 445 L219 460 L213.5 467.5 L207.5 467.5 L201 462 L197 455 L191 437 L188 418 L186 413 L186 395 L189 383 L197 369 L211.5 355.5 L232.5 343.5 L264.5 331.5 L275.5 324.5 L284 316 L290 306 L293 296 L293 276 L291 265 L292 250 L295 244 L306 234 L309 228 L309 216 L307 210 L303.5 205.5 L297.5 201.5 L294.5 200.5 L281.5 201.5 L274.5 205.5 L269 211 L264 219 L261 228 L260 278 L258 286 L253 296 L248.5 301.5 L237.5 310.5 L212.5 321.5 L193.5 332.5 L182 344 L174 357 L168 379 L168 404 L174 432 L180 452 L181 468 L177 479 L171.5 484.5 L163.5 485.5 L155 480 L138 457 L121 425 L109 392 L104 371 L102 339 L101 338 L104 297 L110 271 L121 240 L136 211 L150 191 L177.5 161.5 L195.5 146.5 L220.5 130.5 L247.5 117.5 L283.5 106.5 L307.5 102.5 Z M314 24 L359.5 24.5 L367.5 26.5 L382.5 27.5 L417.5 35.5 L435.5 41.5 L468.5 55.5 L493.5 69.5 L519.5 87.5 L537.5 102.5 L562 127 L577 145 L592 167 L602 184 L619 221 L627 243 L636 280 L634.5 283.5 L587.5 283.5 L585.5 282.5 L583 277 L577 252 L562 217 L543 185 L525 162 L502.5 139.5 L490.5 129.5 L462.5 110.5 L421.5 90.5 L385.5 79.5 L350.5 74.5 L314.5 74.5 L283.5 78.5 L253.5 86.5 L219.5 100.5 L202.5 109.5 L179.5 124.5 L162.5 138.5 L130 173 L112 199 L98 225 L90 243 L79 281 L74 315 L74 350 L81 393 L90 421 L104 452 L116 472 L132 494 L163.5 526.5 L176.5 537.5 L200.5 553.5 L231.5 569.5 L267.5 581.5 L289.5 586.5 L313.5 589.5 L347.5 589.5 L358.5 587.5 L368.5 587.5 L389.5 583.5 L420.5 574.5 L439.5 566.5 L462.5 554.5 L492.5 533.5 L504.5 523.5 L525 503 L538 487 L550 470 L569 434 L580 404 L583 388 L586.5 380.5 L636 381 L636 386 L627 422 L617 451 L604 478 L592 498 L565 534 L531.5 567.5 L495.5 593.5 L475.5 605.5 L450.5 617.5 L425.5 626.5 L402.5 632.5 L375.5 637.5 L343.5 639.5 L342.5 640.5 L319.5 640.5 L318.5 639.5 L287.5 637.5 L256.5 631.5 L229.5 623.5 L200.5 611.5 L178.5 599.5 L156.5 585.5 L129.5 564.5 L108 544 L85 517 L58 475 L47 452 L35 418 L28 390 L24 359 L25 295 L27 289 L28 276 L35 247 L48 211 L58 190 L79 156 L101 128 L125.5 103.5 L142.5 89.5 L169.5 70.5 L196.5 55.5 L224.5 43.5 L258.5 32.5 L288.5 26.5 Z M836.5 234.5 L816.5 237.5 L793.5 247.5 L778.5 258.5 L767 270 L756 287 L749 304 L745 325 L745 342 L749 362 L758 382 L768 396 L778.5 406.5 L790.5 415.5 L807.5 424.5 L821.5 428.5 L845.5 430.5 L864.5 428.5 L878.5 424.5 L896.5 414.5 L916 398 L929 379 L936 361 L939 346 L939 319 L934 298 L926 281 L919 271 L904.5 256.5 L893.5 248.5 L875.5 239.5 L858.5 235.5 Z"></path></g><g transform="translate(1019.5665914221219 142.5) scale(0.8)"><path fill="#ffffff" fill-rule="evenodd" d="M225 0.5 L260 0.5 L259.5 287 L225 286.5 Z M78 73.5 L107.5 73 L108.5 74 L115.5 74 L116.5 75 L120.5 75 L121.5 76 L129.5 77 L130.5 78 L138.5 80 L141.5 82 L143.5 82 L152.5 87 L155.5 89 L168 102.5 L173 114.5 L173 118.5 L174 119.5 L174 127.5 L175 128.5 L175 256.5 L177 260.5 L181.5 263 L198 262.5 L197.5 288 L192.5 289 L191.5 290 L188.5 290 L187.5 291 L164.5 291 L163.5 290 L161.5 290 L152.5 285 L149 281.5 L144 272.5 L143 266.5 L142 265.5 L142 261.5 L140.5 260 L139 262.5 L126.5 274 L106.5 286 L104.5 286 L101.5 288 L99.5 288 L92.5 291 L84.5 292 L83.5 293 L77.5 293 L76.5 294 L57.5 294 L56.5 293 L50.5 293 L49.5 292 L42.5 291 L29.5 285 L23.5 281 L9 265.5 L4 255.5 L4 253.5 L2 249.5 L2 246.5 L1 245.5 L1 240.5 L0 239.5 L0 223.5 L1 222.5 L2 212.5 L7 200.5 L9 198.5 L10 195.5 L21.5 184 L28.5 179 L38.5 174 L40.5 174 L46.5 171 L57.5 169 L58.5 168 L125.5 160 L132.5 157 L137 152.5 L139 148.5 L139 146.5 L140 145.5 L140 128.5 L139 127.5 L139 124.5 L133 114.5 L127.5 110 L115.5 105 L107.5 104 L106.5 103 L94.5 103 L93.5 102 L73.5 104 L72.5 105 L64.5 107 L55.5 113 L50 119.5 L47 125.5 L47 127.5 L45 131.5 L44 140.5 L42.5 142 L11 141.5 L11 131.5 L12 130.5 L12 125.5 L13 124.5 L14 117.5 L15 116.5 L16 111.5 L23 99.5 L32.5 90 L50.5 80 L52.5 80 L62.5 76 L65.5 76 L66.5 75 Z M588 73.5 L617.5 73 L618.5 74 L625.5 74 L626.5 75 L635.5 76 L636.5 77 L639.5 77 L640.5 78 L648.5 80 L653.5 83 L655.5 83 L657.5 85 L662.5 87 L666.5 90 L675 98.5 L679 104.5 L679 106.5 L681 109.5 L681 111.5 L683 115.5 L683 119.5 L684 120.5 L684 252.5 L685 253.5 L685 257.5 L688.5 262 L690.5 262 L691.5 263 L703.5 263 L704.5 262 L708 262.5 L707.5 288 L702.5 289 L701.5 290 L698.5 290 L697.5 291 L674.5 291 L673.5 290 L668.5 289 L663.5 286 L656 277.5 L655 273.5 L653 270.5 L652 262.5 L650.5 260 L643.5 268 L642.5 268 L633.5 276 L627.5 280 L611.5 288 L609.5 288 L602.5 291 L599.5 291 L598.5 292 L594.5 292 L593.5 293 L586.5 293 L585.5 294 L567.5 294 L566.5 293 L555.5 292 L554.5 291 L549.5 290 L546.5 288 L544.5 288 L540.5 285 L537.5 284 L526 274.5 L517 262.5 L514 256.5 L514 254.5 L512 250.5 L512 247.5 L511 246.5 L511 242.5 L510 241.5 L510 222.5 L511 221.5 L511 216.5 L512 215.5 L512 212.5 L513 211.5 L514 206.5 L520 195.5 L527.5 187 L538.5 179 L550.5 173 L552.5 173 L556.5 171 L559.5 171 L563.5 169 L573.5 168 L574.5 167 L581.5 167 L582.5 166 L589.5 166 L590.5 165 L597.5 165 L598.5 164 L605.5 164 L606.5 163 L613.5 163 L614.5 162 L621.5 162 L622.5 161 L629.5 161 L630.5 160 L638.5 159 L643.5 156 L649 148.5 L649 145.5 L650 144.5 L650 129.5 L646 118.5 L638.5 111 L628.5 106 L622.5 105 L621.5 104 L617.5 104 L616.5 103 L604.5 103 L603.5 102 L599.5 102 L598.5 103 L587.5 103 L586.5 104 L579.5 105 L572.5 108 L566.5 112 L562 116.5 L556 127.5 L556 130.5 L554 135.5 L554 140.5 L552.5 142 L521 141.5 L521 130.5 L522 129.5 L522 124.5 L523 123.5 L524 116.5 L530 103.5 L535 96.5 L539.5 92 L546.5 87 L560.5 80 L562.5 80 L565.5 78 L568.5 78 L572.5 76 L575.5 76 L576.5 75 Z M371 74.5 L386.5 74 L387.5 75 L394.5 75 L395.5 76 L398.5 76 L399.5 77 L402.5 77 L403.5 78 L408.5 79 L423.5 87 L427.5 91 L428.5 91 L441.5 105 L442.5 80 L475 80.5 L475 277.5 L474 278.5 L474 292.5 L473 293.5 L473 300.5 L472 301.5 L472 306.5 L471 307.5 L469 318.5 L468 319.5 L467 324.5 L464 329.5 L464 331.5 L456 344.5 L450 350.5 L450 351.5 L442.5 358 L433.5 364 L425.5 368 L423.5 368 L413.5 372 L410.5 372 L409.5 373 L397.5 374 L396.5 375 L364.5 375 L363.5 374 L357.5 374 L356.5 373 L353.5 373 L352.5 372 L342.5 370 L325.5 362 L318.5 357 L311 349.5 L306 342.5 L301 331.5 L300 324.5 L299 323.5 L299 319.5 L298 318.5 L298.5 313 L333.5 313 L334 317.5 L338 327.5 L343 334.5 L348.5 339 L356.5 343 L362.5 344 L363.5 345 L367.5 345 L368.5 346 L393.5 346 L394.5 345 L399.5 345 L403.5 343 L406.5 343 L409.5 341 L411.5 341 L415.5 339 L421.5 335 L430 325.5 L436 313.5 L436 310.5 L438 305.5 L438 301.5 L439 300.5 L439 294.5 L440 293.5 L440 280.5 L441 279.5 L440.5 259 L428.5 273 L417.5 281 L411.5 284 L409.5 284 L402.5 287 L399.5 287 L398.5 288 L393.5 288 L392.5 289 L378.5 289 L377.5 290 L375.5 290 L374.5 289 L363.5 289 L362.5 288 L353.5 287 L352.5 286 L344.5 284 L329.5 276 L321.5 270 L310 258.5 L306 252.5 L297 232.5 L297 229.5 L296 228.5 L296 225.5 L294 220.5 L293 208.5 L292 207.5 L291 177.5 L292 176.5 L292 164.5 L293 163.5 L294 151.5 L295 150.5 L297 139.5 L299 136.5 L301 128.5 L306 118.5 L315 105.5 L328.5 92 L336.5 86 L341.5 84 L345.5 81 L347.5 81 L350.5 79 L352.5 79 L359.5 76 Z M380.5 105 L379.5 106 L368.5 107 L358.5 111 L348.5 118 L342 125.5 L334 140.5 L334 142.5 L332 146.5 L332 149.5 L330 154.5 L330 159.5 L329 160.5 L329 166.5 L328 167.5 L328 180.5 L327 181.5 L327 192.5 L328 193.5 L328 206.5 L329 207.5 L329 212.5 L330 213.5 L330 217.5 L332 221.5 L332 224.5 L338 237.5 L344 245.5 L355.5 255 L368.5 260 L373.5 260 L374.5 261 L385.5 261 L386.5 260 L393.5 260 L394.5 259 L397.5 259 L398.5 258 L406.5 256 L408.5 254 L413.5 252 L417.5 249 L425 241.5 L434 226.5 L434 224.5 L436 221.5 L436 219.5 L439 212.5 L439 208.5 L440 207.5 L440 203.5 L441 202.5 L441 196.5 L442 195.5 L442 167.5 L441 166.5 L440 153.5 L437 145.5 L437 142.5 L430 128.5 L418.5 116 L404.5 108 L398.5 107 L397.5 106 L392.5 106 L391.5 105 Z M138.5 181 L131.5 185 L129.5 185 L125.5 187 L122.5 187 L121.5 188 L118.5 188 L117.5 189 L114.5 189 L113.5 190 L101.5 191 L100.5 192 L94.5 192 L93.5 193 L86.5 193 L85.5 194 L78.5 194 L77.5 195 L73.5 195 L72.5 196 L64.5 197 L63.5 198 L58.5 199 L49.5 204 L42 211.5 L38 219.5 L38 222.5 L37 223.5 L37 238.5 L38 239.5 L39 244.5 L42 249.5 L49.5 257 L52.5 258 L54.5 260 L62.5 263 L65.5 263 L66.5 264 L83.5 264 L84.5 263 L89.5 263 L90.5 262 L97.5 261 L103.5 258 L105.5 258 L118.5 251 L122.5 248 L132 237.5 L138 223.5 L138 219.5 L139 218.5 Z M648.5 181 L643.5 184 L641.5 184 L635.5 187 L632.5 187 L631.5 188 L628.5 188 L623.5 190 L618.5 190 L617.5 191 L611.5 191 L610.5 192 L603.5 192 L602.5 193 L582.5 195 L581.5 196 L578.5 196 L577.5 197 L574.5 197 L573.5 198 L568.5 199 L560.5 203 L556.5 207 L555.5 207 L552 211.5 L549 216.5 L549 218.5 L547 222.5 L547 239.5 L551 248.5 L562.5 259 L572.5 263 L575.5 263 L576.5 264 L593.5 264 L594.5 263 L599.5 263 L600.5 262 L607.5 261 L613.5 258 L615.5 258 L629.5 250 L633.5 247 L641 238.5 L646 229.5 L646 227.5 L648 223.5 L648 218.5 L649 217.5 Z"></path><path fill="#73c5ff" fill-rule="evenodd" d="M803 72.5 L827.5 72 L828.5 73 L840.5 74 L841.5 75 L844.5 75 L845.5 76 L853.5 78 L871.5 88 L882 98.5 L890 111.5 L890 113.5 L892 116.5 L892 118.5 L895 125.5 L895 128.5 L897 133.5 L897 137.5 L898 138.5 L898 144.5 L899 145.5 L898.5 148 L865.5 148 L864 146.5 L864 142.5 L863 141.5 L863 138.5 L860 132.5 L860 130.5 L852 117.5 L846.5 112 L840.5 108 L832.5 105 L829.5 105 L828.5 104 L810.5 103 L809.5 104 L798.5 105 L795.5 107 L793.5 107 L783.5 113 L775 121.5 L770 128.5 L762 147.5 L761 155.5 L760 156.5 L760 160.5 L759 161.5 L759 166.5 L758 167.5 L758 179.5 L757 180.5 L758 205.5 L759 206.5 L759 211.5 L760 212.5 L761 220.5 L769 239.5 L773 245.5 L781.5 254 L787.5 258 L789.5 258 L795.5 261 L804.5 262 L805.5 263 L819.5 263 L820.5 262 L825.5 262 L826.5 261 L831.5 260 L834.5 258 L836.5 258 L842.5 254 L851 245.5 L860 229.5 L860 227.5 L862 224.5 L862 221.5 L864 217.5 L864 214.5 L865.5 213 L899 213.5 L898 215.5 L897 225.5 L893 236.5 L893 239.5 L885 256.5 L882 259.5 L880 263.5 L864.5 278 L847.5 287 L845.5 287 L841.5 289 L838.5 289 L837.5 290 L834.5 290 L833.5 291 L821.5 292 L820.5 293 L799.5 293 L798.5 292 L792.5 292 L791.5 291 L780.5 289 L765.5 282 L754.5 274 L745 264.5 L739 256.5 L729 238.5 L729 236.5 L727 233.5 L727 231.5 L725 227.5 L725 224.5 L723 220.5 L723 216.5 L722 215.5 L722 211.5 L721 210.5 L721 202.5 L720 201.5 L720 172.5 L721 171.5 L721 162.5 L722 161.5 L723 151.5 L724 150.5 L726 139.5 L729 133.5 L730 128.5 L738 113.5 L746 102.5 L754.5 94 L769.5 83 L779.5 78 L781.5 78 L788.5 75 L791.5 75 L796.5 73 Z M998 72.5 L1022.5 72 L1023.5 73 L1029.5 73 L1034.5 75 L1038.5 75 L1039.5 76 L1047.5 78 L1061.5 85 L1071.5 92 L1077.5 98 L1078.5 98 L1079 99.5 L1086 106.5 L1094 118.5 L1097 124.5 L1097 126.5 L1100 131.5 L1100 134.5 L1103 141.5 L1103 145.5 L1104 146.5 L1104 150.5 L1105 151.5 L1105 157.5 L1106 158.5 L1107 183.5 L1106 184.5 L1106 198.5 L1105 199.5 L1104 211.5 L1103 212.5 L1101 223.5 L1100 224.5 L1097 235.5 L1088 253.5 L1080 264.5 L1068.5 276 L1061.5 281 L1047.5 288 L1045.5 288 L1038.5 291 L1034.5 291 L1029.5 293 L1023.5 293 L1022.5 294 L1009.5 294 L1008.5 295 L1003.5 295 L1002.5 294 L990.5 294 L989.5 293 L984.5 293 L983.5 292 L980.5 292 L979.5 291 L976.5 291 L975.5 290 L967.5 288 L959.5 284 L946.5 275 L936 264.5 L930 256.5 L920 237.5 L920 235.5 L917 228.5 L917 225.5 L915 221.5 L914 211.5 L913 210.5 L913 202.5 L912 201.5 L912 171.5 L913 170.5 L913 162.5 L914 161.5 L915 151.5 L916 150.5 L917 143.5 L918 142.5 L921 131.5 L931 112.5 L937 104.5 L950.5 91 L960.5 84 L970.5 79 L975.5 78 L978.5 76 L981.5 76 L986.5 74 L990.5 74 L991.5 73 Z M1226 73.5 L1236.5 73 L1237.5 74 L1243 74.5 L1243 110.5 L1238.5 111 L1237.5 110 L1226.5 110 L1225.5 111 L1218.5 111 L1217.5 112 L1214.5 112 L1213.5 113 L1208.5 114 L1202.5 117 L1194.5 123 L1194 124.5 L1188 130.5 L1182 140.5 L1182 142.5 L1180 145.5 L1180 147.5 L1178 151.5 L1178 155.5 L1177 156.5 L1177 286.5 L1141.5 287 L1141 78.5 L1174.5 78 L1175.5 113 L1176 110.5 L1183 100.5 L1199.5 84 L1213.5 76 Z M1345 73.5 L1360.5 73 L1361.5 74 L1368.5 74 L1369.5 75 L1377.5 76 L1378.5 77 L1386.5 79 L1389.5 81 L1391.5 81 L1399.5 85 L1401.5 87 L1410.5 92 L1415.5 97 L1416.5 97 L1426 107.5 L1436 125.5 L1436 127.5 L1439 133.5 L1440 140.5 L1441 141.5 L1441 145.5 L1442 146.5 L1442 150.5 L1443 151.5 L1443 157.5 L1444 158.5 L1444 170.5 L1445 171.5 L1444.5 194 L1292 194.5 L1292 204.5 L1293 205.5 L1294 216.5 L1295 217.5 L1295 220.5 L1296 221.5 L1298 229.5 L1303 239.5 L1307 245.5 L1315.5 254 L1323.5 259 L1325.5 259 L1328.5 261 L1334.5 262 L1335.5 263 L1341.5 263 L1342.5 264 L1357.5 264 L1358.5 263 L1368.5 262 L1380.5 257 L1382.5 255 L1385.5 254 L1398 241.5 L1402 235.5 L1407 224.5 L1407 222.5 L1408.5 221 L1442 221.5 L1442 224.5 L1441 225.5 L1441 228.5 L1440 229.5 L1438 237.5 L1432 249.5 L1424 261.5 L1409.5 276 L1402.5 281 L1385.5 289 L1375.5 291 L1374.5 292 L1370.5 292 L1369.5 293 L1364.5 293 L1363.5 294 L1334.5 294 L1333.5 293 L1328.5 293 L1327.5 292 L1320.5 291 L1319.5 290 L1314.5 289 L1300.5 282 L1290.5 275 L1276 260.5 L1269 250.5 L1263 238.5 L1263 236.5 L1261 233.5 L1261 231.5 L1259 227.5 L1258 220.5 L1257 219.5 L1256 209.5 L1255 208.5 L1255 200.5 L1254 199.5 L1254 173.5 L1255 172.5 L1255 164.5 L1256 163.5 L1257 153.5 L1258 152.5 L1259 145.5 L1260 144.5 L1262 136.5 L1264 133.5 L1264 131.5 L1274 113.5 L1281 105.5 L1281 104.5 L1290.5 95 L1304.5 85 L1314.5 80 L1319.5 79 L1322.5 77 L1325.5 77 L1330.5 75 L1335.5 75 L1336.5 74 Z M1008.5 102 L1007.5 103 L997.5 103 L996.5 104 L986.5 106 L980.5 109 L978.5 111 L975.5 112 L966 121.5 L962 127.5 L956 139.5 L955 144.5 L953 147.5 L951 158.5 L950 159.5 L949 173.5 L948 174.5 L948 198.5 L949 199.5 L949 206.5 L950 207.5 L951 216.5 L952 217.5 L955 228.5 L964 244.5 L974.5 255 L983.5 260 L985.5 260 L992.5 263 L997.5 263 L998.5 264 L1019.5 264 L1020.5 263 L1025.5 263 L1026.5 262 L1034.5 260 L1044.5 254 L1051 247.5 L1057 238.5 L1059 234.5 L1059 232.5 L1061 229.5 L1061 227.5 L1063 224.5 L1064 218.5 L1067 210.5 L1067 206.5 L1068 205.5 L1069 190.5 L1070 189.5 L1070 167.5 L1069 166.5 L1069 158.5 L1068 157.5 L1067 147.5 L1066 146.5 L1063 135.5 L1060 129.5 L1052 118.5 L1044.5 112 L1033.5 106 L1030.5 106 L1029.5 105 L1022.5 104 L1021.5 103 L1011.5 103 L1010.5 102 Z M1342.5 104 L1341.5 105 L1337.5 105 L1336.5 106 L1330.5 107 L1322.5 111 L1316.5 115 L1306 125.5 L1302 131.5 L1295 147.5 L1294 156.5 L1293 157.5 L1293.5 166 L1409 165.5 L1407 150.5 L1406 149.5 L1406 146.5 L1405 145.5 L1404 139.5 L1402 136.5 L1402 134.5 L1396 124.5 L1388.5 116 L1381.5 111 L1373.5 107 L1370.5 107 L1366.5 105 L1361.5 105 L1360.5 104 Z"></path></g></svg>