<svg xmlns="http://www.w3.org/2000/svg" viewBox="0 0 1015 664.5" role="img" aria-label="Algacore mark"><path fill="currentColor" fill-rule="evenodd" d="M322 102 L358.5 102.5 L381.5 106.5 L408.5 114.5 L425.5 121.5 L450.5 134.5 L484.5 159.5 L505 180 L514 191 L535 223 L545 244 L552 264 L557 282 L560 303 L562.5 306.5 L584.5 306.5 L585.5 307.5 L693.5 306.5 L696 303 L696 300 L706 272 L712 260 L724 242 L745.5 219.5 L773.5 200.5 L788.5 193.5 L803.5 188.5 L807.5 188.5 L815.5 185.5 L832.5 183.5 L853.5 183.5 L869.5 185.5 L888.5 190.5 L904.5 196.5 L925.5 208.5 L949 228 L967 250 L981 277 L986 292 L991 318 L991 348 L986 373 L980 390 L971 408 L955 430 L939.5 445.5 L917.5 461.5 L897.5 471.5 L874.5 478.5 L854.5 481.5 L831.5 481.5 L811.5 478.5 L788.5 471.5 L769.5 462.5 L743.5 444.5 L730 431 L712 406 L703 387 L697 369 L696 362 L693.5 357.5 L563.5 357.5 L561 362 L560 373 L555 393 L546 420 L537 439 L523 462 L502 488 L490.5 499.5 L468.5 517.5 L445.5 532.5 L428.5 541.5 L405.5 550.5 L379.5 557.5 L348.5 562.5 L318.5 562.5 L301.5 560.5 L272.5 554.5 L246.5 545.5 L237.5 540.5 L234 537 L233 527 L236 521 L246.5 511.5 L257.5 505.5 L268.5 501.5 L277.5 499.5 L295.5 499.5 L342.5 509.5 L361.5 510.5 L386.5 504.5 L403.5 494.5 L413 483 L417 473 L417 463 L414 458 L408.5 453.5 L402.5 452.5 L394.5 454.5 L383 465 L371.5 478.5 L358.5 486.5 L342.5 490.5 L332.5 490.5 L320.5 488.5 L308.5 484.5 L299 477 L297 473 L297 462 L301 453 L309.5 443.5 L327.5 434.5 L345.5 432.5 L378.5 431.5 L400.5 425.5 L421.5 413.5 L435 400 L442 390 L459 353 L472.5 339.5 L491.5 327.5 L501 317 L503 310 L503 301 L499 291 L494.5 286.5 L487.5 282.5 L466.5 281.5 L453.5 286.5 L447.5 290.5 L434 305 L425 327 L422 342 L414 368 L405 384 L394.5 394.5 L381.5 403.5 L370.5 408.5 L354.5 413.5 L326.5 419.5 L305.5 428.5 L292 442 L278 468 L267.5 479.5 L259.5 482.5 L250.5 481.5 L246.5 479.5 L241 474 L238 465 L238 456 L241 445 L246 436 L265.5 417.5 L274.5 411.5 L295.5 402.5 L332.5 394.5 L347.5 389.5 L359.5 383.5 L365.5 379.5 L377 368 L383 358 L388 340 L388 320 L386 310 L380.5 295.5 L379 298 L380 307 L378 316 L374.5 318.5 L369 309 L369 297 L371 293 L374.5 291.5 L378.5 293.5 L380 291 L375 270 L375 249 L377 242 L383 233 L396.5 219.5 L404.5 213.5 L416 200 L423 185 L423 173 L418 163 L411.5 156.5 L404.5 152.5 L386.5 151.5 L376.5 154.5 L362.5 163.5 L353 173 L339 193 L332 209 L329 219 L326 238 L326 259 L328 271 L328 299 L326 310 L319 326 L311 337 L301.5 345.5 L282.5 356.5 L244.5 373.5 L233.5 381.5 L226 389 L219 401 L216 413 L216 431 L219 445 L219 460 L213.5 467.5 L207.5 467.5 L201 462 L197 455 L191 437 L188 418 L186 413 L186 395 L189 383 L197 369 L211.5 355.5 L232.5 343.5 L264.5 331.5 L275.5 324.5 L284 316 L290 306 L293 296 L293 276 L291 265 L292 250 L295 244 L306 234 L309 228 L309 216 L307 210 L303.5 205.5 L297.5 201.5 L294.5 200.5 L281.5 201.5 L274.5 205.5 L269 211 L264 219 L261 228 L260 278 L258 286 L253 296 L248.5 301.5 L237.5 310.5 L212.5 321.5 L193.5 332.5 L182 344 L174 357 L168 379 L168 404 L174 432 L180 452 L181 468 L177 479 L171.5 484.5 L163.5 485.5 L155 480 L138 457 L121 425 L109 392 L104 371 L102 339 L101 338 L104 297 L110 271 L121 240 L136 211 L150 191 L177.5 161.5 L195.5 146.5 L220.5 130.5 L247.5 117.5 L283.5 106.5 L307.5 102.5 Z M314 24 L359.5 24.5 L367.5 26.5 L382.5 27.5 L417.5 35.5 L435.5 41.5 L468.5 55.5 L493.5 69.5 L519.5 87.5 L537.5 102.5 L562 127 L577 145 L592 167 L602 184 L619 221 L627 243 L636 280 L634.5 283.5 L587.5 283.5 L585.5 282.5 L583 277 L577 252 L562 217 L543 185 L525 162 L502.5 139.5 L490.5 129.5 L462.5 110.5 L421.5 90.5 L385.5 79.5 L350.5 74.5 L314.5 74.5 L283.5 78.5 L253.5 86.5 L219.5 100.5 L202.5 109.5 L179.5 124.5 L162.5 138.5 L130 173 L112 199 L98 225 L90 243 L79 281 L74 315 L74 350 L81 393 L90 421 L104 452 L116 472 L132 494 L163.5 526.5 L176.5 537.5 L200.5 553.5 L231.5 569.5 L267.5 581.5 L289.5 586.5 L313.5 589.5 L347.5 589.5 L358.5 587.5 L368.5 587.5 L389.5 583.5 L420.5 574.5 L439.5 566.5 L462.5 554.5 L492.5 533.5 L504.5 523.5 L525 503 L538 487 L550 470 L569 434 L580 404 L583 388 L586.5 380.5 L636 381 L636 386 L627 422 L617 451 L604 478 L592 498 L565 534 L531.5 567.5 L495.5 593.5 L475.5 605.5 L450.5 617.5 L425.5 626.5 L402.5 632.5 L375.5 637.5 L343.5 639.5 L342.5 640.5 L319.5 640.5 L318.5 639.5 L287.5 637.5 L256.5 631.5 L229.5 623.5 L200.5 611.5 L178.5 599.5 L156.5 585.5 L129.5 564.5 L108 544 L85 517 L58 475 L47 452 L35 418 L28 390 L24 359 L25 295 L27 289 L28 276 L35 247 L48 211 L58 190 L79 156 L101 128 L125.5 103.5 L142.5 89.5 L169.5 70.5 L196.5 55.5 L224.5 43.5 L258.5 32.5 L288.5 26.5 Z M836.5 234.5 L816.5 237.5 L793.5 247.5 L778.5 258.5 L767 270 L756 287 L749 304 L745 325 L745 342 L749 362 L758 382 L768 396 L778.5 406.5 L790.5 415.5 L807.5 424.5 L821.5 428.5 L845.5 430.5 L864.5 428.5 L878.5 424.5 L896.5 414.5 L916 398 L929 379 L936 361 L939 346 L939 319 L934 298 L926 281 L919 271 L904.5 256.5 L893.5 248.5 L875.5 239.5 L858.5 235.5 Z"></path></svg>