<svg xmlns="http://www.w3.org/2000/svg" viewBox="0 0 1802.2 421.15" width="1802.2" height="421.15"><defs></defs><g transform="translate(60 60) scale(0.45)"><path fill="#0f2e3d" fill-rule="evenodd" d="M322 102 L358.5 102.5 L381.5 106.5 L408.5 114.5 L425.5 121.5 L450.5 134.5 L484.5 159.5 L505 180 L514 191 L535 223 L545 244 L552 264 L557 282 L560 303 L562.5 306.5 L584.5 306.5 L585.5 307.5 L693.5 306.5 L696 303 L696 300 L706 272 L712 260 L724 242 L745.5 219.5 L773.5 200.5 L788.5 193.5 L803.5 188.5 L807.5 188.5 L815.5 185.5 L832.5 183.5 L853.5 183.5 L869.5 185.5 L888.5 190.5 L904.5 196.5 L925.5 208.5 L949 228 L967 250 L981 277 L986 292 L991 318 L991 348 L986 373 L980 390 L971 408 L955 430 L939.5 445.5 L917.5 461.5 L897.5 471.5 L874.5 478.5 L854.5 481.5 L831.5 481.5 L811.5 478.5 L788.5 471.5 L769.5 462.5 L743.5 444.5 L730 431 L712 406 L703 387 L697 369 L696 362 L693.5 357.5 L563.5 357.5 L561 362 L560 373 L555 393 L546 420 L537 439 L523 462 L502 488 L490.5 499.5 L468.5 517.5 L445.5 532.5 L428.5 541.5 L405.5 550.5 L379.5 557.5 L348.5 562.5 L318.5 562.5 L301.5 560.5 L272.5 554.5 L246.5 545.5 L237.5 540.5 L234 537 L233 527 L236 521 L246.5 511.5 L257.5 505.5 L268.5 501.5 L277.5 499.5 L295.5 499.5 L342.5 509.5 L361.5 510.5 L386.5 504.5 L403.5 494.5 L413 483 L417 473 L417 463 L414 458 L408.5 453.5 L402.5 452.5 L394.5 454.5 L383 465 L371.5 478.5 L358.5 486.5 L342.5 490.5 L332.5 490.5 L320.5 488.5 L308.5 484.5 L299 477 L297 473 L297 462 L301 453 L309.5 443.5 L327.5 434.5 L345.5 432.5 L378.5 431.5 L400.5 425.5 L421.5 413.5 L435 400 L442 390 L459 353 L472.5 339.5 L491.5 327.5 L501 317 L503 310 L503 301 L499 291 L494.5 286.5 L487.5 282.5 L466.5 281.5 L453.5 286.5 L447.5 290.5 L434 305 L425 327 L422 342 L414 368 L405 384 L394.5 394.5 L381.5 403.5 L370.5 408.5 L354.5 413.5 L326.5 419.5 L305.5 428.5 L292 442 L278 468 L267.5 479.5 L259.5 482.5 L250.5 481.5 L246.5 479.5 L241 474 L238 465 L238 456 L241 445 L246 436 L265.5 417.5 L274.5 411.5 L295.5 402.5 L332.5 394.5 L347.5 389.5 L359.5 383.5 L365.5 379.5 L377 368 L383 358 L388 340 L388 320 L386 310 L380.5 295.5 L379 298 L380 307 L378 316 L374.5 318.5 L369 309 L369 297 L371 293 L374.5 291.5 L378.5 293.5 L380 291 L375 270 L375 249 L377 242 L383 233 L396.5 219.5 L404.5 213.5 L416 200 L423 185 L423 173 L418 163 L411.5 156.5 L404.5 152.5 L386.5 151.5 L376.5 154.5 L362.5 163.5 L353 173 L339 193 L332 209 L329 219 L326 238 L326 259 L328 271 L328 299 L326 310 L319 326 L311 337 L301.5 345.5 L282.5 356.5 L244.5 373.5 L233.5 381.5 L226 389 L219 401 L216 413 L216 431 L219 445 L219 460 L213.5 467.5 L207.5 467.5 L201 462 L197 455 L191 437 L188 418 L186 413 L186 395 L189 383 L197 369 L211.5 355.5 L232.5 343.5 L264.5 331.5 L275.5 324.5 L284 316 L290 306 L293 296 L293 276 L291 265 L292 250 L295 244 L306 234 L309 228 L309 216 L307 210 L303.5 205.5 L297.5 201.5 L294.5 200.5 L281.5 201.5 L274.5 205.5 L269 211 L264 219 L261 228 L260 278 L258 286 L253 296 L248.5 301.5 L237.5 310.5 L212.5 321.5 L193.5 332.5 L182 344 L174 357 L168 379 L168 404 L174 432 L180 452 L181 468 L177 479 L171.5 484.5 L163.5 485.5 L155 480 L138 457 L121 425 L109 392 L104 371 L102 339 L101 338 L104 297 L110 271 L121 240 L136 211 L150 191 L177.5 161.5 L195.5 146.5 L220.5 130.5 L247.5 117.5 L283.5 106.5 L307.5 102.5 Z M314 24 L359.5 24.5 L367.5 26.5 L382.5 27.5 L417.5 35.5 L435.5 41.5 L468.5 55.5 L493.5 69.5 L519.5 87.5 L537.5 102.5 L562 127 L577 145 L592 167 L602 184 L619 221 L627 243 L636 280 L634.5 283.5 L587.5 283.5 L585.5 282.5 L583 277 L577 252 L562 217 L543 185 L525 162 L502.5 139.5 L490.5 129.5 L462.5 110.5 L421.5 90.5 L385.5 79.5 L350.5 74.5 L314.5 74.5 L283.5 78.5 L253.5 86.5 L219.5 100.5 L202.5 109.5 L179.5 124.5 L162.5 138.5 L130 173 L112 199 L98 225 L90 243 L79 281 L74 315 L74 350 L81 393 L90 421 L104 452 L116 472 L132 494 L163.5 526.5 L176.5 537.5 L200.5 553.5 L231.5 569.5 L267.5 581.5 L289.5 586.5 L313.5 589.5 L347.5 589.5 L358.5 587.5 L368.5 587.5 L389.5 583.5 L420.5 574.5 L439.5 566.5 L462.5 554.5 L492.5 533.5 L504.5 523.5 L525 503 L538 487 L550 470 L569 434 L580 404 L583 388 L586.5 380.5 L636 381 L636 386 L627 422 L617 451 L604 478 L592 498 L565 534 L531.5 567.5 L495.5 593.5 L475.5 605.5 L450.5 617.5 L425.5 626.5 L402.5 632.5 L375.5 637.5 L343.5 639.5 L342.5 640.5 L319.5 640.5 L318.5 639.5 L287.5 637.5 L256.5 631.5 L229.5 623.5 L200.5 611.5 L178.5 599.5 L156.5 585.5 L129.5 564.5 L108 544 L85 517 L58 475 L47 452 L35 418 L28 390 L24 359 L25 295 L27 289 L28 276 L35 247 L48 211 L58 190 L79 156 L101 128 L125.5 103.5 L142.5 89.5 L169.5 70.5 L196.5 55.5 L224.5 43.5 L258.5 32.5 L288.5 26.5 Z M836.5 234.5 L816.5 237.5 L793.5 247.5 L778.5 258.5 L767 270 L756 287 L749 304 L745 325 L745 342 L749 362 L758 382 L768 396 L778.5 406.5 L790.5 415.5 L807.5 424.5 L821.5 428.5 L845.5 430.5 L864.5 428.5 L878.5 424.5 L896.5 414.5 L916 398 L929 379 L936 361 L939 346 L939 319 L934 298 L926 281 L919 271 L904.5 256.5 L893.5 248.5 L875.5 239.5 L858.5 235.5 Z"></path></g><g fill-rule="nonzero"><path fill="#0f2e3d" d="M696.1 288.58Q675.7 288.58 659.6500000000001 279.13Q643.6 269.68 634.3 253.48Q625.0 237.27999999999997 625.0 216.88Q625.0 196.48 634.3 180.13Q643.6 163.77999999999997 659.5 154.17999999999998Q675.4 144.57999999999998 695.5 144.57999999999998Q711.4 144.57999999999998 724.15 150.43Q736.9 156.28 745.45 167.07999999999998Q754.0 177.88 757.3 192.88V239.98Q753.7 254.98 745.1500000000001 265.93Q736.6 276.88 724.1500000000001 282.73Q711.7 288.58 696.1 288.58ZM697.3 279.88Q723.1 279.88 738.4000000000001 262.63Q753.7 245.38 753.7 216.88Q753.7 197.68 746.6500000000001 183.43Q739.6 169.18 726.7 161.23000000000002Q713.8 153.28 696.7 153.28Q678.7 153.28 664.75 161.52999999999997Q650.8 169.77999999999997 642.7 184.02999999999997Q634.6 198.27999999999997 634.6 216.57999999999998Q634.6 234.88 642.7 249.13Q650.8 263.38 665.05 271.63Q679.3 279.88 697.3 279.88ZM753.4 285.58V248.67999999999998L756.1 214.48L753.4 181.18V147.57999999999998H762.7V285.58ZM804.7 285.58V76.78H814.0V285.58ZM912.7 347.38Q892.9 347.38 876.7 339.88Q860.5 332.38 850.6 318.28L856.3 312.58Q864.4 324.28 879.0999999999999 331.48Q893.8 338.68 913.0 338.68Q941.8 338.68 958.75 322.93Q975.7 307.18 975.7 280.47999999999996V245.38L978.4 212.98L975.7 181.48V147.57999999999998H985.0V280.47999999999996Q985.0 300.58 976.0 315.58Q967.0 330.58 950.65 338.98Q934.3 347.38 912.7 347.38ZM917.2 285.58Q897.1 285.58 881.35 276.42999999999995Q865.6 267.28 856.45 251.38Q847.3 235.48 847.3 215.07999999999998Q847.3 194.98 856.3 179.07999999999998Q865.3 163.18 881.05 153.88Q896.8 144.57999999999998 916.6 144.57999999999998Q932.5 144.57999999999998 945.55 150.43Q958.6 156.28 967.45 167.07999999999998Q976.3 177.88 979.6 192.88V237.57999999999998Q976.0 252.27999999999997 967.15 263.08Q958.3 273.88 945.55 279.73Q932.8 285.58 917.2 285.58ZM918.4 276.88Q935.5 276.88 948.55 269.23Q961.6 261.58 968.8 247.63Q976.0 233.67999999999998 976.0 215.07999999999998Q976.0 196.77999999999997 968.65 182.98Q961.3 169.18 948.25 161.23000000000002Q935.2 153.28 917.8 153.28Q900.1 153.28 886.3 161.23000000000002Q872.5 169.18 864.7 182.98Q856.9 196.77999999999997 856.9 214.77999999999997Q856.9 232.77999999999997 864.8499999999999 246.87999999999997Q872.8 260.97999999999996 886.5999999999999 268.92999999999995Q900.4 276.88 918.4 276.88ZM1088.8 288.58Q1068.4 288.58 1052.35 279.13Q1036.3 269.68 1027.0 253.48Q1017.7 237.27999999999997 1017.7 216.88Q1017.7 196.48 1027.0 180.13Q1036.3 163.77999999999997 1052.2 154.17999999999998Q1068.1000000000001 144.57999999999998 1088.2 144.57999999999998Q1104.1000000000001 144.57999999999998 1116.8500000000001 150.43Q1129.6000000000001 156.28 1138.15 167.07999999999998Q1146.7 177.88 1150.0 192.88V239.98Q1146.4 254.98 1137.85 265.93Q1129.3 276.88 1116.85 282.73Q1104.4 288.58 1088.8 288.58ZM1090.0 279.88Q1115.8 279.88 1131.1 262.63Q1146.4 245.38 1146.4 216.88Q1146.4 197.68 1139.35 183.43Q1132.3 169.18 1119.4 161.23000000000002Q1106.5 153.28 1089.4 153.28Q1071.4 153.28 1057.45 161.52999999999997Q1043.5 169.77999999999997 1035.4 184.02999999999997Q1027.3 198.27999999999997 1027.3 216.57999999999998Q1027.3 234.88 1035.4 249.13Q1043.5 263.38 1057.75 271.63Q1072.0 279.88 1090.0 279.88ZM1146.1000000000001 285.58V248.67999999999998L1148.8 214.48L1146.1000000000001 181.18V147.57999999999998H1155.4V285.58Z"/><path fill="#008edd" d="M1259.5 288.58Q1239.4 288.58 1223.3500000000001 278.98Q1207.3000000000002 269.38 1197.8500000000001 252.88Q1188.4 236.38 1188.4 215.98Q1188.4 195.88 1197.8500000000001 179.68Q1207.3000000000002 163.48 1223.3500000000001 154.02999999999997Q1239.4 144.57999999999998 1259.5 144.57999999999998Q1274.5 144.57999999999998 1287.5500000000002 150.13Q1300.6000000000001 155.67999999999998 1309.9 165.57999999999998L1303.6000000000001 171.88Q1295.5 163.18 1284.1 158.23000000000002Q1272.7 153.28 1259.5 153.28Q1242.1000000000001 153.28 1228.15 161.52999999999997Q1214.2 169.77999999999997 1206.1 183.88Q1198.0 197.98 1198.0 215.98Q1198.0 234.27999999999997 1206.1 248.67999999999998Q1214.2 263.08 1228.15 271.48Q1242.1000000000001 279.88 1259.5 279.88Q1273.0 279.88 1284.5500000000002 274.92999999999995Q1296.1000000000001 269.97999999999996 1304.5 260.97999999999996L1310.8000000000002 267.28Q1301.2 277.47999999999996 1287.85 283.03Q1274.5 288.58 1259.5 288.58ZM1399.6 288.58Q1379.5 288.58 1363.45 278.98Q1347.4 269.38 1337.95 252.88Q1328.5 236.38 1328.5 215.98Q1328.5 195.88 1337.95 179.68Q1347.4 163.48 1363.45 154.02999999999997Q1379.5 144.57999999999998 1399.6 144.57999999999998Q1419.4 144.57999999999998 1435.45 154.02999999999997Q1451.5 163.48 1460.95 179.68Q1470.4 195.88 1470.4 215.98Q1470.4 236.67999999999998 1460.95 253.02999999999997Q1451.5 269.38 1435.45 278.98Q1419.4 288.58 1399.6 288.58ZM1399.6 279.88Q1417.0 279.88 1430.8 271.48Q1444.6 263.08 1452.6999999999998 248.52999999999997Q1460.8 233.98 1460.8 215.68Q1460.8 197.98 1452.6999999999998 183.88Q1444.6 169.77999999999997 1430.8 161.52999999999997Q1417.0 153.28 1399.6 153.28Q1382.2 153.28 1368.25 161.52999999999997Q1354.3 169.77999999999997 1346.1999999999998 183.88Q1338.1 197.98 1338.1 215.98Q1338.1 234.27999999999997 1346.1999999999998 248.67999999999998Q1354.3 263.08 1368.25 271.48Q1382.2 279.88 1399.6 279.88ZM1503.4 285.58V147.57999999999998H1512.7V285.58ZM1512.7 201.27999999999997 1506.4 199.48Q1506.4 173.07999999999998 1520.3500000000001 158.82999999999998Q1534.3000000000002 144.57999999999998 1555.3000000000002 144.57999999999998Q1565.5 144.57999999999998 1574.35 148.18Q1583.2 151.78 1590.7 159.57999999999998L1584.4 166.48Q1578.1000000000001 159.57999999999998 1570.75 156.57999999999998Q1563.4 153.57999999999998 1553.8000000000002 153.57999999999998Q1535.5 153.57999999999998 1524.1 166.02999999999997Q1512.7 178.48 1512.7 201.27999999999997ZM1670.4999999999998 288.58Q1649.7999999999997 288.58 1633.4499999999998 279.13Q1617.1 269.68 1607.6499999999999 253.32999999999998Q1598.1999999999998 236.98 1598.1999999999998 216.27999999999997Q1598.1999999999998 195.88 1607.35 179.68Q1616.4999999999998 163.48 1632.5499999999997 154.02999999999997Q1648.6 144.57999999999998 1668.6999999999998 144.57999999999998Q1687.2999999999997 144.57999999999998 1701.5499999999997 152.82999999999998Q1715.7999999999997 161.07999999999998 1723.8999999999996 175.77999999999997Q1731.9999999999998 190.48 1731.9999999999998 209.68Q1731.9999999999998 210.88 1731.85 213.43Q1731.6999999999998 215.98 1731.1 219.88H1604.7999999999997V211.18H1725.1L1722.3999999999999 213.27999999999997Q1723.6 195.57999999999998 1717.0 182.07999999999998Q1710.3999999999999 168.57999999999998 1697.9499999999998 160.93Q1685.4999999999998 153.28 1668.3999999999999 153.28Q1650.3999999999999 153.28 1636.75 161.23000000000002Q1623.1 169.18 1615.4499999999998 183.13Q1607.7999999999997 197.07999999999998 1607.7999999999997 215.68Q1607.7999999999997 234.88 1615.7499999999998 249.28Q1623.6999999999998 263.68 1638.1 271.78Q1652.4999999999998 279.88 1671.6999999999998 279.88Q1686.1 279.88 1698.25 274.48Q1710.3999999999999 269.08 1718.7999999999997 258.28L1725.1 264.58Q1715.7999999999997 275.68 1701.5499999999997 282.13Q1687.2999999999997 288.58 1670.4999999999998 288.58Z"/></g></svg>