<svg xmlns="http://www.w3.org/2000/svg" viewBox="0 0 874.8 823.4" width="874.8" height="823.4"><defs></defs><g transform="translate(127.4 60) scale(0.61)"><path fill="#0f2e3d" fill-rule="evenodd" d="M322 102 L358.5 102.5 L381.5 106.5 L408.5 114.5 L425.5 121.5 L450.5 134.5 L484.5 159.5 L505 180 L514 191 L535 223 L545 244 L552 264 L557 282 L560 303 L562.5 306.5 L584.5 306.5 L585.5 307.5 L693.5 306.5 L696 303 L696 300 L706 272 L712 260 L724 242 L745.5 219.5 L773.5 200.5 L788.5 193.5 L803.5 188.5 L807.5 188.5 L815.5 185.5 L832.5 183.5 L853.5 183.5 L869.5 185.5 L888.5 190.5 L904.5 196.5 L925.5 208.5 L949 228 L967 250 L981 277 L986 292 L991 318 L991 348 L986 373 L980 390 L971 408 L955 430 L939.5 445.5 L917.5 461.5 L897.5 471.5 L874.5 478.5 L854.5 481.5 L831.5 481.5 L811.5 478.5 L788.5 471.5 L769.5 462.5 L743.5 444.5 L730 431 L712 406 L703 387 L697 369 L696 362 L693.5 357.5 L563.5 357.5 L561 362 L560 373 L555 393 L546 420 L537 439 L523 462 L502 488 L490.5 499.5 L468.5 517.5 L445.5 532.5 L428.5 541.5 L405.5 550.5 L379.5 557.5 L348.5 562.5 L318.5 562.5 L301.5 560.5 L272.5 554.5 L246.5 545.5 L237.5 540.5 L234 537 L233 527 L236 521 L246.5 511.5 L257.5 505.5 L268.5 501.5 L277.5 499.5 L295.5 499.5 L342.5 509.5 L361.5 510.5 L386.5 504.5 L403.5 494.5 L413 483 L417 473 L417 463 L414 458 L408.5 453.5 L402.5 452.5 L394.5 454.5 L383 465 L371.5 478.5 L358.5 486.5 L342.5 490.5 L332.5 490.5 L320.5 488.5 L308.5 484.5 L299 477 L297 473 L297 462 L301 453 L309.5 443.5 L327.5 434.5 L345.5 432.5 L378.5 431.5 L400.5 425.5 L421.5 413.5 L435 400 L442 390 L459 353 L472.5 339.5 L491.5 327.5 L501 317 L503 310 L503 301 L499 291 L494.5 286.5 L487.5 282.5 L466.5 281.5 L453.5 286.5 L447.5 290.5 L434 305 L425 327 L422 342 L414 368 L405 384 L394.5 394.5 L381.5 403.5 L370.5 408.5 L354.5 413.5 L326.5 419.5 L305.5 428.5 L292 442 L278 468 L267.5 479.5 L259.5 482.5 L250.5 481.5 L246.5 479.5 L241 474 L238 465 L238 456 L241 445 L246 436 L265.5 417.5 L274.5 411.5 L295.5 402.5 L332.5 394.5 L347.5 389.5 L359.5 383.5 L365.5 379.5 L377 368 L383 358 L388 340 L388 320 L386 310 L380.5 295.5 L379 298 L380 307 L378 316 L374.5 318.5 L369 309 L369 297 L371 293 L374.5 291.5 L378.5 293.5 L380 291 L375 270 L375 249 L377 242 L383 233 L396.5 219.5 L404.5 213.5 L416 200 L423 185 L423 173 L418 163 L411.5 156.5 L404.5 152.5 L386.5 151.5 L376.5 154.5 L362.5 163.5 L353 173 L339 193 L332 209 L329 219 L326 238 L326 259 L328 271 L328 299 L326 310 L319 326 L311 337 L301.5 345.5 L282.5 356.5 L244.5 373.5 L233.5 381.5 L226 389 L219 401 L216 413 L216 431 L219 445 L219 460 L213.5 467.5 L207.5 467.5 L201 462 L197 455 L191 437 L188 418 L186 413 L186 395 L189 383 L197 369 L211.5 355.5 L232.5 343.5 L264.5 331.5 L275.5 324.5 L284 316 L290 306 L293 296 L293 276 L291 265 L292 250 L295 244 L306 234 L309 228 L309 216 L307 210 L303.5 205.5 L297.5 201.5 L294.5 200.5 L281.5 201.5 L274.5 205.5 L269 211 L264 219 L261 228 L260 278 L258 286 L253 296 L248.5 301.5 L237.5 310.5 L212.5 321.5 L193.5 332.5 L182 344 L174 357 L168 379 L168 404 L174 432 L180 452 L181 468 L177 479 L171.5 484.5 L163.5 485.5 L155 480 L138 457 L121 425 L109 392 L104 371 L102 339 L101 338 L104 297 L110 271 L121 240 L136 211 L150 191 L177.5 161.5 L195.5 146.5 L220.5 130.5 L247.5 117.5 L283.5 106.5 L307.5 102.5 Z M314 24 L359.5 24.5 L367.5 26.5 L382.5 27.5 L417.5 35.5 L435.5 41.5 L468.5 55.5 L493.5 69.5 L519.5 87.5 L537.5 102.5 L562 127 L577 145 L592 167 L602 184 L619 221 L627 243 L636 280 L634.5 283.5 L587.5 283.5 L585.5 282.5 L583 277 L577 252 L562 217 L543 185 L525 162 L502.5 139.5 L490.5 129.5 L462.5 110.5 L421.5 90.5 L385.5 79.5 L350.5 74.5 L314.5 74.5 L283.5 78.5 L253.5 86.5 L219.5 100.5 L202.5 109.5 L179.5 124.5 L162.5 138.5 L130 173 L112 199 L98 225 L90 243 L79 281 L74 315 L74 350 L81 393 L90 421 L104 452 L116 472 L132 494 L163.5 526.5 L176.5 537.5 L200.5 553.5 L231.5 569.5 L267.5 581.5 L289.5 586.5 L313.5 589.5 L347.5 589.5 L358.5 587.5 L368.5 587.5 L389.5 583.5 L420.5 574.5 L439.5 566.5 L462.5 554.5 L492.5 533.5 L504.5 523.5 L525 503 L538 487 L550 470 L569 434 L580 404 L583 388 L586.5 380.5 L636 381 L636 386 L627 422 L617 451 L604 478 L592 498 L565 534 L531.5 567.5 L495.5 593.5 L475.5 605.5 L450.5 617.5 L425.5 626.5 L402.5 632.5 L375.5 637.5 L343.5 639.5 L342.5 640.5 L319.5 640.5 L318.5 639.5 L287.5 637.5 L256.5 631.5 L229.5 623.5 L200.5 611.5 L178.5 599.5 L156.5 585.5 L129.5 564.5 L108 544 L85 517 L58 475 L47 452 L35 418 L28 390 L24 359 L25 295 L27 289 L28 276 L35 247 L48 211 L58 190 L79 156 L101 128 L125.5 103.5 L142.5 89.5 L169.5 70.5 L196.5 55.5 L224.5 43.5 L258.5 32.5 L288.5 26.5 Z M836.5 234.5 L816.5 237.5 L793.5 247.5 L778.5 258.5 L767 270 L756 287 L749 304 L745 325 L745 342 L749 362 L758 382 L768 396 L778.5 406.5 L790.5 415.5 L807.5 424.5 L821.5 428.5 L845.5 430.5 L864.5 428.5 L878.5 424.5 L896.5 414.5 L916 398 L929 379 L936 361 L939 346 L939 319 L934 298 L926 281 L919 271 L904.5 256.5 L893.5 248.5 L875.5 239.5 L858.5 235.5 Z"></path></g><g fill-rule="nonzero"><path fill="#0f2e3d" d="M118.19999999999996 721.65Q104.59999999999997 721.65 93.89999999999996 715.3499999999999Q83.19999999999996 709.05 76.99999999999996 698.25Q70.79999999999995 687.4499999999999 70.79999999999995 673.85Q70.79999999999995 660.25 76.99999999999996 649.3499999999999Q83.19999999999996 638.4499999999999 93.79999999999995 632.05Q104.39999999999995 625.65 117.79999999999995 625.65Q128.39999999999998 625.65 136.89999999999998 629.55Q145.39999999999998 633.4499999999999 151.09999999999997 640.65Q156.79999999999995 647.85 158.99999999999994 657.85V689.25Q156.59999999999997 699.25 150.89999999999998 706.55Q145.19999999999996 713.85 136.89999999999998 717.75Q128.59999999999997 721.65 118.19999999999996 721.65ZM118.99999999999996 715.85Q136.19999999999996 715.85 146.39999999999998 704.35Q156.59999999999997 692.85 156.59999999999997 673.85Q156.59999999999997 661.05 151.89999999999998 651.55Q147.19999999999996 642.05 138.59999999999997 636.75Q129.99999999999994 631.4499999999999 118.59999999999997 631.4499999999999Q106.59999999999997 631.4499999999999 97.29999999999995 636.9499999999999Q87.99999999999996 642.4499999999999 82.59999999999997 651.9499999999999Q77.19999999999996 661.4499999999999 77.19999999999996 673.65Q77.19999999999996 685.85 82.59999999999997 695.35Q87.99999999999996 704.85 97.49999999999996 710.35Q106.99999999999996 715.85 118.99999999999996 715.85ZM156.39999999999998 719.65V695.05L158.19999999999996 672.25L156.39999999999998 650.05V627.65H162.59999999999997V719.65ZM190.59999999999997 719.65V580.4499999999999H196.79999999999995V719.65ZM262.59999999999997 760.85Q249.39999999999995 760.85 238.59999999999997 755.85Q227.79999999999995 750.85 221.19999999999996 741.4499999999999L224.99999999999994 737.65Q230.39999999999995 745.4499999999999 240.19999999999993 750.25Q249.99999999999994 755.05 262.79999999999995 755.05Q281.99999999999994 755.05 293.29999999999995 744.55Q304.59999999999997 734.05 304.59999999999997 716.25V692.85L306.4 671.25L304.59999999999997 650.25V627.65H310.79999999999995V716.25Q310.79999999999995 729.65 304.79999999999995 739.65Q298.79999999999995 749.65 287.9 755.25Q276.99999999999994 760.85 262.59999999999997 760.85ZM265.59999999999997 719.65Q252.19999999999996 719.65 241.69999999999996 713.55Q231.19999999999996 707.4499999999999 225.09999999999997 696.8499999999999Q218.99999999999994 686.25 218.99999999999994 672.65Q218.99999999999994 659.25 224.99999999999994 648.65Q230.99999999999994 638.05 241.49999999999994 631.8499999999999Q251.99999999999994 625.65 265.19999999999993 625.65Q275.79999999999995 625.65 284.49999999999994 629.55Q293.19999999999993 633.4499999999999 299.0999999999999 640.65Q304.99999999999994 647.85 307.19999999999993 657.85V687.65Q304.79999999999995 697.4499999999999 298.9 704.65Q292.99999999999994 711.85 284.49999999999994 715.75Q275.99999999999994 719.65 265.59999999999997 719.65ZM266.4 713.85Q277.79999999999995 713.85 286.49999999999994 708.75Q295.19999999999993 703.65 299.99999999999994 694.3499999999999Q304.79999999999995 685.05 304.79999999999995 672.65Q304.79999999999995 660.4499999999999 299.9 651.25Q294.99999999999994 642.05 286.29999999999995 636.75Q277.59999999999997 631.4499999999999 265.99999999999994 631.4499999999999Q254.19999999999996 631.4499999999999 244.99999999999994 636.75Q235.79999999999995 642.05 230.59999999999997 651.25Q225.39999999999995 660.4499999999999 225.39999999999995 672.4499999999999Q225.39999999999995 684.4499999999999 230.69999999999993 693.8499999999999Q235.99999999999994 703.25 245.19999999999993 708.55Q254.39999999999995 713.85 266.4 713.85ZM380.0 721.65Q366.4 721.65 355.69999999999993 715.3499999999999Q344.99999999999994 709.05 338.79999999999995 698.25Q332.59999999999997 687.4499999999999 332.59999999999997 673.85Q332.59999999999997 660.25 338.79999999999995 649.3499999999999Q344.99999999999994 638.4499999999999 355.59999999999997 632.05Q366.2 625.65 379.59999999999997 625.65Q390.2 625.65 398.7 629.55Q407.2 633.4499999999999 412.9 640.65Q418.59999999999997 647.85 420.79999999999995 657.85V689.25Q418.4 699.25 412.7 706.55Q407.0 713.85 398.7 717.75Q390.4 721.65 380.0 721.65ZM380.79999999999995 715.85Q398.0 715.85 408.2 704.35Q418.4 692.85 418.4 673.85Q418.4 661.05 413.7 651.55Q409.0 642.05 400.4 636.75Q391.79999999999995 631.4499999999999 380.4 631.4499999999999Q368.4 631.4499999999999 359.09999999999997 636.9499999999999Q349.79999999999995 642.4499999999999 344.4 651.9499999999999Q338.99999999999994 661.4499999999999 338.99999999999994 673.65Q338.99999999999994 685.85 344.4 695.35Q349.79999999999995 704.85 359.29999999999995 710.35Q368.79999999999995 715.85 380.79999999999995 715.85ZM418.2 719.65V695.05L420.0 672.25L418.2 650.05V627.65H424.4V719.65Z"/><path fill="#008edd" d="M493.79999999999995 721.65Q480.4 721.65 469.7 715.25Q459.0 708.85 452.7 697.85Q446.4 686.85 446.4 673.25Q446.4 659.85 452.7 649.05Q459.0 638.25 469.7 631.95Q480.4 625.65 493.79999999999995 625.65Q503.79999999999995 625.65 512.5 629.3499999999999Q521.2 633.05 527.4 639.65L523.2 643.85Q517.8 638.05 510.19999999999993 634.75Q502.59999999999997 631.4499999999999 493.79999999999995 631.4499999999999Q482.2 631.4499999999999 472.9 636.9499999999999Q463.59999999999997 642.4499999999999 458.19999999999993 651.8499999999999Q452.79999999999995 661.25 452.79999999999995 673.25Q452.79999999999995 685.4499999999999 458.19999999999993 695.05Q463.59999999999997 704.65 472.9 710.25Q482.2 715.85 493.79999999999995 715.85Q502.79999999999995 715.85 510.5 712.55Q518.2 709.25 523.8 703.25L528.0 707.4499999999999Q521.6 714.25 512.7 717.95Q503.79999999999995 721.65 493.79999999999995 721.65ZM587.1999999999999 721.65Q573.8 721.65 563.0999999999999 715.25Q552.4 708.85 546.0999999999999 697.85Q539.8 686.85 539.8 673.25Q539.8 659.85 546.0999999999999 649.05Q552.4 638.25 563.0999999999999 631.95Q573.8 625.65 587.1999999999999 625.65Q600.4 625.65 611.0999999999999 631.95Q621.8 638.25 628.0999999999999 649.05Q634.4 659.85 634.4 673.25Q634.4 687.05 628.0999999999999 697.95Q621.8 708.85 611.0999999999999 715.25Q600.4 721.65 587.1999999999999 721.65ZM587.1999999999999 715.85Q598.8 715.85 608.0 710.25Q617.1999999999999 704.65 622.5999999999999 694.95Q628.0 685.25 628.0 673.05Q628.0 661.25 622.5999999999999 651.8499999999999Q617.1999999999999 642.4499999999999 608.0 636.9499999999999Q598.8 631.4499999999999 587.1999999999999 631.4499999999999Q575.5999999999999 631.4499999999999 566.3 636.9499999999999Q557.0 642.4499999999999 551.5999999999999 651.8499999999999Q546.1999999999999 661.25 546.1999999999999 673.25Q546.1999999999999 685.4499999999999 551.5999999999999 695.05Q557.0 704.65 566.3 710.25Q575.5999999999999 715.85 587.1999999999999 715.85ZM656.4 719.65V627.65H662.6V719.65ZM662.6 663.4499999999999 658.4 662.25Q658.4 644.65 667.7 635.15Q677.0 625.65 691.0 625.65Q697.8 625.65 703.7 628.05Q709.6 630.4499999999999 714.6 635.65L710.4 640.25Q706.1999999999999 635.65 701.3 633.65Q696.4 631.65 690.0 631.65Q677.8 631.65 670.2 639.95Q662.6 648.25 662.6 663.4499999999999ZM767.8000000000001 721.65Q754.0 721.65 743.1 715.3499999999999Q732.2 709.05 725.9000000000001 698.15Q719.6 687.25 719.6 673.4499999999999Q719.6 659.85 725.7 649.05Q731.8000000000001 638.25 742.5 631.95Q753.2 625.65 766.6 625.65Q779.0 625.65 788.5 631.15Q798.0 636.65 803.4000000000001 646.45Q808.8000000000001 656.25 808.8000000000001 669.05Q808.8000000000001 669.85 808.7 671.55Q808.6 673.25 808.2 675.85H724.0V670.05H804.2L802.4000000000001 671.4499999999999Q803.2 659.65 798.8000000000001 650.65Q794.4000000000001 641.65 786.1000000000001 636.55Q777.8000000000001 631.4499999999999 766.4 631.4499999999999Q754.4 631.4499999999999 745.3 636.75Q736.2 642.05 731.1 651.3499999999999Q726.0 660.65 726.0 673.05Q726.0 685.85 731.3 695.45Q736.6 705.05 746.2 710.45Q755.8000000000001 715.85 768.6 715.85Q778.2 715.85 786.3000000000001 712.25Q794.4000000000001 708.65 800.0 701.4499999999999L804.2 705.65Q798.0 713.05 788.5 717.3499999999999Q779.0 721.65 767.8000000000001 721.65Z"/></g></svg>