<svg xmlns="http://www.w3.org/2000/svg" viewBox="0 0 3894 1057.5" width="3894" height="1057.5"><defs></defs><g fill-rule="nonzero"><path fill="#0f2e3d" d="M351.0 788.75Q283.0 788.75 229.5 757.25Q176.0 725.75 145.0 671.75Q114.0 617.75 114.0 549.75Q114.0 481.75 145.0 427.25Q176.0 372.75 229.0 340.75Q282.0 308.75 349.0 308.75Q402.0 308.75 444.5 328.25Q487.0 347.75 515.5 383.75Q544.0 419.75 555.0 469.75V626.75Q543.0 676.75 514.5 713.25Q486.0 749.75 444.5 769.25Q403.0 788.75 351.0 788.75ZM355.0 759.75Q441.0 759.75 492.0 702.25Q543.0 644.75 543.0 549.75Q543.0 485.75 519.5 438.25Q496.0 390.75 453.0 364.25Q410.0 337.75 353.0 337.75Q293.0 337.75 246.5 365.25Q200.0 392.75 173.0 440.25Q146.0 487.75 146.0 548.75Q146.0 609.75 173.0 657.25Q200.0 704.75 247.5 732.25Q295.0 759.75 355.0 759.75ZM542.0 778.75V655.75L551.0 541.75L542.0 430.75V318.75H573.0V778.75ZM713.0 778.75V82.75H744.0V778.75ZM1073.0 984.75Q1007.0 984.75 953.0 959.75Q899.0 934.75 866.0 887.75L885.0 868.75Q912.0 907.75 961.0 931.75Q1010.0 955.75 1074.0 955.75Q1170.0 955.75 1226.5 903.25Q1283.0 850.75 1283.0 761.75V644.75L1292.0 536.75L1283.0 431.75V318.75H1314.0V761.75Q1314.0 828.75 1284.0 878.75Q1254.0 928.75 1199.5 956.75Q1145.0 984.75 1073.0 984.75ZM1088.0 778.75Q1021.0 778.75 968.5 748.25Q916.0 717.75 885.5 664.75Q855.0 611.75 855.0 543.75Q855.0 476.75 885.0 423.75Q915.0 370.75 967.5 339.75Q1020.0 308.75 1086.0 308.75Q1139.0 308.75 1182.5 328.25Q1226.0 347.75 1255.5 383.75Q1285.0 419.75 1296.0 469.75V618.75Q1284.0 667.75 1254.5 703.75Q1225.0 739.75 1182.5 759.25Q1140.0 778.75 1088.0 778.75ZM1092.0 749.75Q1149.0 749.75 1192.5 724.25Q1236.0 698.75 1260.0 652.25Q1284.0 605.75 1284.0 543.75Q1284.0 482.75 1259.5 436.75Q1235.0 390.75 1191.5 364.25Q1148.0 337.75 1090.0 337.75Q1031.0 337.75 985.0 364.25Q939.0 390.75 913.0 436.75Q887.0 482.75 887.0 542.75Q887.0 602.75 913.5 649.75Q940.0 696.75 986.0 723.25Q1032.0 749.75 1092.0 749.75ZM1660.0 788.75Q1592.0 788.75 1538.5 757.25Q1485.0 725.75 1454.0 671.75Q1423.0 617.75 1423.0 549.75Q1423.0 481.75 1454.0 427.25Q1485.0 372.75 1538.0 340.75Q1591.0 308.75 1658.0 308.75Q1711.0 308.75 1753.5 328.25Q1796.0 347.75 1824.5 383.75Q1853.0 419.75 1864.0 469.75V626.75Q1852.0 676.75 1823.5 713.25Q1795.0 749.75 1753.5 769.25Q1712.0 788.75 1660.0 788.75ZM1664.0 759.75Q1750.0 759.75 1801.0 702.25Q1852.0 644.75 1852.0 549.75Q1852.0 485.75 1828.5 438.25Q1805.0 390.75 1762.0 364.25Q1719.0 337.75 1662.0 337.75Q1602.0 337.75 1555.5 365.25Q1509.0 392.75 1482.0 440.25Q1455.0 487.75 1455.0 548.75Q1455.0 609.75 1482.0 657.25Q1509.0 704.75 1556.5 732.25Q1604.0 759.75 1664.0 759.75ZM1851.0 778.75V655.75L1860.0 541.75L1851.0 430.75V318.75H1882.0V778.75Z"/><path fill="#008edd" d="M2229.0 788.75Q2162.0 788.75 2108.5 756.75Q2055.0 724.75 2023.5 669.75Q1992.0 614.75 1992.0 546.75Q1992.0 479.75 2023.5 425.75Q2055.0 371.75 2108.5 340.25Q2162.0 308.75 2229.0 308.75Q2279.0 308.75 2322.5 327.25Q2366.0 345.75 2397.0 378.75L2376.0 399.75Q2349.0 370.75 2311.0 354.25Q2273.0 337.75 2229.0 337.75Q2171.0 337.75 2124.5 365.25Q2078.0 392.75 2051.0 439.75Q2024.0 486.75 2024.0 546.75Q2024.0 607.75 2051.0 655.75Q2078.0 703.75 2124.5 731.75Q2171.0 759.75 2229.0 759.75Q2274.0 759.75 2312.5 743.25Q2351.0 726.75 2379.0 696.75L2400.0 717.75Q2368.0 751.75 2323.5 770.25Q2279.0 788.75 2229.0 788.75ZM2696.0 788.75Q2629.0 788.75 2575.5 756.75Q2522.0 724.75 2490.5 669.75Q2459.0 614.75 2459.0 546.75Q2459.0 479.75 2490.5 425.75Q2522.0 371.75 2575.5 340.25Q2629.0 308.75 2696.0 308.75Q2762.0 308.75 2815.5 340.25Q2869.0 371.75 2900.5 425.75Q2932.0 479.75 2932.0 546.75Q2932.0 615.75 2900.5 670.25Q2869.0 724.75 2815.5 756.75Q2762.0 788.75 2696.0 788.75ZM2696.0 759.75Q2754.0 759.75 2800.0 731.75Q2846.0 703.75 2873.0 655.25Q2900.0 606.75 2900.0 545.75Q2900.0 486.75 2873.0 439.75Q2846.0 392.75 2800.0 365.25Q2754.0 337.75 2696.0 337.75Q2638.0 337.75 2591.5 365.25Q2545.0 392.75 2518.0 439.75Q2491.0 486.75 2491.0 546.75Q2491.0 607.75 2518.0 655.75Q2545.0 703.75 2591.5 731.75Q2638.0 759.75 2696.0 759.75ZM3042.0 778.75V318.75H3073.0V778.75ZM3073.0 497.75 3052.0 491.75Q3052.0 403.75 3098.5 356.25Q3145.0 308.75 3215.0 308.75Q3249.0 308.75 3278.5 320.75Q3308.0 332.75 3333.0 358.75L3312.0 381.75Q3291.0 358.75 3266.5 348.75Q3242.0 338.75 3210.0 338.75Q3149.0 338.75 3111.0 380.25Q3073.0 421.75 3073.0 497.75ZM3599.0 788.75Q3530.0 788.75 3475.5 757.25Q3421.0 725.75 3389.5 671.25Q3358.0 616.75 3358.0 547.75Q3358.0 479.75 3388.5 425.75Q3419.0 371.75 3472.5 340.25Q3526.0 308.75 3593.0 308.75Q3655.0 308.75 3702.5 336.25Q3750.0 363.75 3777.0 412.75Q3804.0 461.75 3804.0 525.75Q3804.0 529.75 3803.5 538.25Q3803.0 546.75 3801.0 559.75H3380.0V530.75H3781.0L3772.0 537.75Q3776.0 478.75 3754.0 433.75Q3732.0 388.75 3690.5 363.25Q3649.0 337.75 3592.0 337.75Q3532.0 337.75 3486.5 364.25Q3441.0 390.75 3415.5 437.25Q3390.0 483.75 3390.0 545.75Q3390.0 609.75 3416.5 657.75Q3443.0 705.75 3491.0 732.75Q3539.0 759.75 3603.0 759.75Q3651.0 759.75 3691.5 741.75Q3732.0 723.75 3760.0 687.75L3781.0 708.75Q3750.0 745.75 3702.5 767.25Q3655.0 788.75 3599.0 788.75Z"/></g></svg>